<svg height="512" viewBox="0 0 256 256" width="512" xmlns="http://www.w3.org/2000/svg"><path d="m195.577 169.729a23.526 23.526 0 0 0 -22.1-7.8 2 2 0 0 0 -1.523 1.3 23.461 23.461 0 0 0 26.4 30.845 2 2 0 0 0 1.522-1.3 23.53 23.53 0 0 0 -4.299-23.045z" fill="#fcc24c"/><path d="m216.578 99.977a23.439 23.439 0 0 0 -39.033-11.17 2 2 0 0 0 -.551 1.926 23.533 23.533 0 0 0 16.292 16.853 23.269 23.269 0 0 0 6.409.9 23.556 23.556 0 0 0 16.333-6.581 2 2 0 0 0 .55-1.928z" fill="#fcc24c"/><path d="m246.348 77.962a2 2 0 0 0 -1.2-1.6 23.438 23.438 0 0 0 -32.495 24.338 2 2 0 0 0 1.2 1.6 23.44 23.44 0 0 0 32.494-24.341z" fill="#dea42e"/><path d="m214.2 59.217a23.531 23.531 0 0 0 -17.978-15.042 2 2 0 0 0 -1.882.687 23.44 23.44 0 0 0 13.933 38.138 2.03 2.03 0 0 0 .346.03 2 2 0 0 0 1.536-.718 23.536 23.536 0 0 0 4.045-23.095z" fill="#fcc24c"/><path d="m205.677 112.073a23.529 23.529 0 0 0 -23.325 2.332 2 2 0 0 0 -.824 1.826 23.454 23.454 0 0 0 37 16.7 2 2 0 0 0 .825-1.827 23.532 23.532 0 0 0 -13.676-19.031z" fill="#fcc24c"/><path d="m251.043 111.873a23.439 23.439 0 0 0 -35.675 19.381 2 2 0 0 0 .956 1.76 23.439 23.439 0 0 0 35.676-19.381 2 2 0 0 0 -.957-1.76z" fill="#dea42e"/><path d="m203.881 141.732a23.527 23.527 0 0 0 -23.355-1.994 2 2 0 0 0 -1.147 1.643 23.461 23.461 0 0 0 33.307 23.219 2 2 0 0 0 1.145-1.643 23.533 23.533 0 0 0 -9.95-21.225z" fill="#fcc24c"/><path d="m248.512 149.873a23.44 23.44 0 0 0 -38.629 12.494 2 2 0 0 0 .616 1.906 23.546 23.546 0 0 0 15.746 6.035 23.407 23.407 0 0 0 22.883-18.529 2 2 0 0 0 -.616-1.906z" fill="#dea42e"/><path d="m236.728 188.828a23.439 23.439 0 0 0 -40.528 2.382 2 2 0 0 0 .118 2 23.538 23.538 0 0 0 19.59 10.549q.679 0 1.362-.04a23.529 23.529 0 0 0 19.577-12.891 2 2 0 0 0 -.119-2z" fill="#dea42e"/><g fill="#690589"><path d="m199.7 108.484a23.262 23.262 0 0 1 -6.408-.9 23.528 23.528 0 0 1 -16.292-16.851 2 2 0 0 1 .551-1.926 23.439 23.439 0 0 1 39.032 11.17 2 2 0 0 1 -.551 1.926 23.559 23.559 0 0 1 -16.332 6.581zm-18.5-17.59a19.435 19.435 0 0 0 31.181 8.922 19.518 19.518 0 0 0 -13.191-12.847 19.517 19.517 0 0 0 -17.99 3.925z"/><path d="m223.058 104.18a23.451 23.451 0 0 1 -9.2-1.877 2 2 0 0 1 -1.2-1.6 23.536 23.536 0 0 1 9.221-21.552 23.531 23.531 0 0 1 23.274-2.789 2 2 0 0 1 1.2 1.6 23.417 23.417 0 0 1 -23.291 26.217zm-6.536-5.127a19.436 19.436 0 0 0 25.957-19.444 19.436 19.436 0 0 0 -25.957 19.444z"/><path d="m208.62 83.025a2.051 2.051 0 0 1 -.347-.03 23.532 23.532 0 0 1 -17.973-15.043 23.531 23.531 0 0 1 4.04-23.089 2 2 0 0 1 1.882-.688 23.44 23.44 0 0 1 13.938 38.132 2 2 0 0 1 -1.54.718zm-14.567-16.446a19.514 19.514 0 0 0 13.759 12.236 19.436 19.436 0 0 0 -11.134-30.461 19.523 19.523 0 0 0 -2.625 18.225z"/><path d="m204.825 137.328a23.4 23.4 0 0 1 -23.3-21.1 2 2 0 0 1 .825-1.826 23.527 23.527 0 0 1 23.324-2.332 23.527 23.527 0 0 1 13.682 19.033 2 2 0 0 1 -.824 1.827 23.536 23.536 0 0 1 -13.707 4.398zm-19.163-20.328a19.437 19.437 0 0 0 29.563 13.342 19.521 19.521 0 0 0 -11.194-14.621 19.519 19.519 0 0 0 -18.369 1.279z"/><path d="m228.58 136.452a23.5 23.5 0 0 1 -12.255-3.438 2 2 0 0 1 -.956-1.76 23.439 23.439 0 0 1 35.675-19.381 2 2 0 0 1 .956 1.76 23.4 23.4 0 0 1 -23.42 22.819zm-9.145-6.267a19.436 19.436 0 0 0 28.5-15.483 19.436 19.436 0 0 0 -28.5 15.483z"/><path d="m202.746 166.8a23.414 23.414 0 0 1 -23.366-25.422 2 2 0 0 1 1.146-1.643 23.439 23.439 0 0 1 33.3 23.218 2 2 0 0 1 -1.146 1.643 23.444 23.444 0 0 1 -9.934 2.204zm-19.446-23.9a19.434 19.434 0 0 0 26.6 18.547 19.52 19.52 0 0 0 -8.314-16.429 19.518 19.518 0 0 0 -18.286-2.118z"/><path d="m226.246 170.308a23.55 23.55 0 0 1 -15.747-6.035 2 2 0 0 1 -.616-1.906 23.528 23.528 0 0 1 15.708-17.4 23.529 23.529 0 0 1 22.921 4.9 2 2 0 0 1 .616 1.906 23.405 23.405 0 0 1 -22.882 18.529zm-12.17-8.244a19.435 19.435 0 0 0 30.859-9.981 19.52 19.52 0 0 0 -18.114-3.309 19.524 19.524 0 0 0 -12.745 13.29z"/><path d="m194.092 194.466a23.433 23.433 0 0 1 -22.141-31.236 2 2 0 0 1 1.523-1.3 23.439 23.439 0 0 1 26.4 30.845 2 2 0 0 1 -1.522 1.3 23.424 23.424 0 0 1 -4.26.391zm-18.725-28.785a19.435 19.435 0 0 0 21.089 24.64 19.515 19.515 0 0 0 -3.918-17.991 19.513 19.513 0 0 0 -17.171-6.649z"/><path d="m215.906 203.759a23.541 23.541 0 0 1 -19.59-10.549 2 2 0 0 1 -.118-2 23.44 23.44 0 0 1 40.531-2.382 2 2 0 0 1 .118 2 23.53 23.53 0 0 1 -19.578 12.891c-.455.027-.911.04-1.363.04zm-15.572-11.789a19.436 19.436 0 0 0 32.377-1.9 19.5 19.5 0 0 0 -16.7-7.756 19.522 19.522 0 0 0 -15.677 9.656z"/><path d="m184.272 211.855a2 2 0 0 1 -1.455-3.373 119.622 119.622 0 0 0 23.837-126.856 2 2 0 0 1 3.707-1.505 123.634 123.634 0 0 1 -24.635 131.108 1.994 1.994 0 0 1 -1.454.626z"/></g><path d="m60.423 169.729a23.526 23.526 0 0 1 22.1-7.8 2 2 0 0 1 1.523 1.3 23.461 23.461 0 0 1 -26.4 30.845 2 2 0 0 1 -1.522-1.3 23.53 23.53 0 0 1 4.299-23.045z" fill="#fcc24c"/><path d="m39.422 99.977a23.439 23.439 0 0 1 39.033-11.17 2 2 0 0 1 .551 1.926 23.533 23.533 0 0 1 -16.292 16.853 23.269 23.269 0 0 1 -6.409.9 23.556 23.556 0 0 1 -16.333-6.586 2 2 0 0 1 -.55-1.923z" fill="#fcc24c"/><path d="m9.652 77.962a2 2 0 0 1 1.2-1.6 23.438 23.438 0 0 1 32.495 24.338 2 2 0 0 1 -1.2 1.6 23.44 23.44 0 0 1 -32.495-24.338z" fill="#fce06a"/><path d="m41.805 59.217a23.531 23.531 0 0 1 17.978-15.042 2 2 0 0 1 1.882.687 23.44 23.44 0 0 1 -13.938 38.138 2.03 2.03 0 0 1 -.346.03 2 2 0 0 1 -1.536-.718 23.536 23.536 0 0 1 -4.04-23.095z" fill="#fcc24c"/><path d="m50.323 112.073a23.529 23.529 0 0 1 23.325 2.332 2 2 0 0 1 .824 1.826 23.454 23.454 0 0 1 -37 16.7 2 2 0 0 1 -.825-1.827 23.532 23.532 0 0 1 13.676-19.031z" fill="#fcc24c"/><path d="m4.957 111.873a23.439 23.439 0 0 1 35.675 19.381 2 2 0 0 1 -.956 1.76 23.439 23.439 0 0 1 -35.676-19.381 2 2 0 0 1 .957-1.76z" fill="#fce06a"/><path d="m52.119 141.732a23.527 23.527 0 0 1 23.355-1.994 2 2 0 0 1 1.147 1.643 23.461 23.461 0 0 1 -33.307 23.219 2 2 0 0 1 -1.145-1.643 23.533 23.533 0 0 1 9.95-21.225z" fill="#fcc24c"/><path d="m7.488 149.873a23.44 23.44 0 0 1 38.629 12.494 2 2 0 0 1 -.616 1.906 23.546 23.546 0 0 1 -15.746 6.035 23.407 23.407 0 0 1 -22.883-18.529 2 2 0 0 1 .616-1.906z" fill="#fce06a"/><path d="m19.272 188.828a23.439 23.439 0 0 1 40.528 2.382 2 2 0 0 1 -.118 2 23.538 23.538 0 0 1 -19.59 10.549q-.68 0-1.362-.04a23.529 23.529 0 0 1 -19.577-12.891 2 2 0 0 1 .119-2z" fill="#fce06a"/><path d="m56.305 108.483a23.545 23.545 0 0 1 -16.332-6.58 2 2 0 0 1 -.551-1.926 23.526 23.526 0 0 1 16.292-16.854 23.528 23.528 0 0 1 22.74 5.684 2 2 0 0 1 .551 1.926 23.528 23.528 0 0 1 -16.292 16.853 23.261 23.261 0 0 1 -6.408.897zm-12.682-8.667a19.435 19.435 0 0 0 31.177-8.922 19.516 19.516 0 0 0 -17.99-3.925 19.518 19.518 0 0 0 -13.187 12.847z" fill="#690589"/><path d="m32.942 104.18a23.417 23.417 0 0 1 -23.291-26.217 2 2 0 0 1 1.2-1.6 23.533 23.533 0 0 1 23.274 2.789 23.536 23.536 0 0 1 9.223 21.548 2 2 0 0 1 -1.2 1.6 23.459 23.459 0 0 1 -9.206 1.88zm-19.421-24.571a19.436 19.436 0 0 0 25.958 19.444 19.52 19.52 0 0 0 -7.75-16.7 19.521 19.521 0 0 0 -18.208-2.744z" fill="#690589"/><path d="m47.38 83.025a2 2 0 0 1 -1.535-.718 23.44 23.44 0 0 1 13.938-38.132 1.99 1.99 0 0 1 1.882.688 23.531 23.531 0 0 1 4.04 23.089 23.532 23.532 0 0 1 -17.978 15.048 2.042 2.042 0 0 1 -.347.025zm11.942-34.671a19.436 19.436 0 0 0 -11.134 30.461 19.514 19.514 0 0 0 13.759-12.236 19.523 19.523 0 0 0 -2.625-18.225z" fill="#690589"/><path d="m51.175 137.328a23.536 23.536 0 0 1 -13.709-4.4 2 2 0 0 1 -.824-1.827 23.44 23.44 0 0 1 37.005-16.7 2 2 0 0 1 .825 1.826 23.4 23.4 0 0 1 -23.3 21.1zm-10.4-6.988a19.437 19.437 0 0 0 29.563-13.34 19.519 19.519 0 0 0 -18.368-1.279 19.521 19.521 0 0 0 -11.195 14.619z" fill="#690589"/><path d="m27.42 136.452a23.4 23.4 0 0 1 -23.42-22.819 2 2 0 0 1 .956-1.76 23.439 23.439 0 0 1 35.675 19.381 2 2 0 0 1 -.956 1.76 23.5 23.5 0 0 1 -12.255 3.438zm-19.354-21.752a19.436 19.436 0 0 0 28.5 15.483 19.436 19.436 0 0 0 -28.5-15.483z" fill="#690589"/><path d="m53.254 166.8a23.444 23.444 0 0 1 -9.939-2.2 2 2 0 0 1 -1.146-1.643 23.528 23.528 0 0 1 9.95-21.224 23.524 23.524 0 0 1 23.355-1.994 2 2 0 0 1 1.146 1.643 23.414 23.414 0 0 1 -23.366 25.418zm-7.162-5.361a19.434 19.434 0 0 0 26.608-18.539 19.524 19.524 0 0 0 -18.291 2.118 19.52 19.52 0 0 0 -8.317 16.424z" fill="#690589"/><path d="m29.754 170.308a23.278 23.278 0 0 1 -7.175-1.13 23.528 23.528 0 0 1 -15.707-17.4 2 2 0 0 1 .616-1.906 23.44 23.44 0 0 1 38.629 12.494 2 2 0 0 1 -.616 1.906 23.555 23.555 0 0 1 -15.747 6.036zm-18.689-18.225a19.435 19.435 0 0 0 30.859 9.981 19.524 19.524 0 0 0 -12.745-13.29 19.52 19.52 0 0 0 -18.114 3.309z" fill="#690589"/><path d="m61.908 194.466a23.327 23.327 0 0 1 -4.258-.391 2 2 0 0 1 -1.522-1.3 23.524 23.524 0 0 1 4.3-23.044 23.521 23.521 0 0 1 22.1-7.8 2 2 0 0 1 1.523 1.3 23.433 23.433 0 0 1 -22.141 31.236zm-2.364-4.145a19.435 19.435 0 0 0 21.089-24.64 19.514 19.514 0 0 0 -17.171 6.649 19.515 19.515 0 0 0 -3.918 17.991z" fill="#690589"/><path d="m40.094 203.759q-.68 0-1.363-.04a23.53 23.53 0 0 1 -19.578-12.891 2 2 0 0 1 .119-2 23.555 23.555 0 0 1 20.952-10.51 23.535 23.535 0 0 1 19.576 12.892 2 2 0 0 1 -.118 2 23.542 23.542 0 0 1 -19.588 10.549zm-16.8-13.692a19.436 19.436 0 0 0 32.377 1.9 19.522 19.522 0 0 0 -15.677-9.659 19.534 19.534 0 0 0 -16.705 7.759z" fill="#690589"/><path d="m71.729 211.855a1.994 1.994 0 0 1 -1.455-.626 123.636 123.636 0 0 1 -24.635-131.108 2 2 0 0 1 3.707 1.505 119.622 119.622 0 0 0 23.837 126.856 2 2 0 0 1 -1.454 3.373z" fill="#690589"/><path d="m106.2 225.648a7.619 7.619 0 0 1 -7.353-9.659 77.59 77.59 0 0 0 2.093-9.984c2.619-30.119-.873-51.945-11.349-84.247s-3.491-74.644-3.491-74.644h83.81s6.985 42.342-3.492 74.644-13.968 54.128-11.349 84.247a77.59 77.59 0 0 0 2.093 9.984 7.619 7.619 0 0 1 -7.353 9.659z" fill="#fcc24c"/><path d="m169.905 47.114h-6.479s6.984 42.342-3.492 74.644-13.968 54.128-11.349 84.247a77.59 77.59 0 0 0 2.093 9.984 7.619 7.619 0 0 1 -7.353 9.659h6.475a7.619 7.619 0 0 0 7.353-9.659 77.761 77.761 0 0 1 -2.093-9.984c-2.619-30.119.873-51.945 11.349-84.247s3.496-74.644 3.496-74.644z" fill="#dea42e"/><path d="m86.1 47.114h6.479s-6.984 42.342 3.492 74.644 13.968 54.128 11.349 84.247a77.59 77.59 0 0 1 -2.093 9.984 7.619 7.619 0 0 0 7.353 9.659h-6.48a7.619 7.619 0 0 1 -7.353-9.659 77.761 77.761 0 0 0 2.093-9.984c2.619-30.119-.873-51.945-11.349-84.247s-3.491-74.644-3.491-74.644z" fill="#fce06a"/><path d="m149.8 227.648h-43.6a9.62 9.62 0 0 1 -9.279-12.2 75.757 75.757 0 0 0 2.032-9.672c2.49-28.708-.354-49.764-11.264-83.4-10.506-32.392-3.852-73.838-3.564-75.586a2 2 0 0 1 1.975-1.676h83.81a2 2 0 0 1 1.974 1.675c.288 1.748 6.942 43.194-3.564 75.586-10.91 33.638-13.754 54.694-11.264 83.4a75.706 75.706 0 0 0 2.032 9.671 9.62 9.62 0 0 1 -9.279 12.2zm-61.979-178.534c-1.13 8.128-5.372 44.153 3.668 72.027 11.1 34.238 13.991 55.7 11.44 85.038 0 .036-.007.073-.013.11a79.918 79.918 0 0 1 -2.147 10.24 5.619 5.619 0 0 0 5.427 7.119h43.604a5.619 5.619 0 0 0 5.427-7.119 79.918 79.918 0 0 1 -2.147-10.24c-.006-.037-.01-.074-.013-.11-2.551-29.342.335-50.8 11.44-85.038 9.04-27.874 4.8-63.9 3.668-72.027z" fill="#690589"/><path d="m155.607 214.747h-55.214a2 2 0 1 1 0-4h55.214a2 2 0 1 1 0 4z" fill="#690589"/><path d="m153.058 30.352h-50.116a16.762 16.762 0 0 0 -16.763 16.762h54.421v15.848a5.928 5.928 0 1 0 11.855 0v-15.848h17.37a16.762 16.762 0 0 0 -16.767-16.762z" fill="#f4efed"/><path d="m153.058 30.352h-6.767a16.761 16.761 0 0 1 16.762 16.762h6.768a16.762 16.762 0 0 0 -16.763-16.762z" fill="#d6d1cf"/><path d="m102.942 30.352h6.767a16.761 16.761 0 0 0 -16.762 16.762h-6.768a16.762 16.762 0 0 1 16.763-16.762z" fill="#fff"/><path d="m146.523 70.89a7.937 7.937 0 0 1 -7.927-7.928v-13.848h-52.417a2 2 0 0 1 -2-2 18.784 18.784 0 0 1 18.762-18.762h50.118a18.784 18.784 0 0 1 18.762 18.762 2 2 0 0 1 -2 2h-15.37v13.848a7.937 7.937 0 0 1 -7.928 7.928zm-58.209-25.776h52.286a2 2 0 0 1 2 2v15.848a3.928 3.928 0 1 0 7.855 0v-15.848a2 2 0 0 1 2-2h15.235a14.785 14.785 0 0 0 -14.627-12.762h-50.122a14.785 14.785 0 0 0 -14.627 12.762z" fill="#690589"/></svg>